<?xml version="1.0"?>
<svg xmlns="http://www.w3.org/2000/svg" height="512px" viewBox="1 0 511.99962 511" width="512px"><g><path d="m512 255.984375c0 141.097656-114.382812 255.480469-255.484375 255.480469-141.097656 0-255.480469-114.382813-255.480469-255.480469 0-141.101563 114.382813-255.484375 255.480469-255.484375 141.101563 0 255.484375 114.382812 255.484375 255.484375zm0 0" fill="#1da2dd" data-original="#1DA2DD"/><path d="m273.265625 109.21875c-4.722656 5.476562-10.289063 10.824219-16.746094 15.957031l-97.8125 59.613281c-46.332031 34.214844-103.832031-18.476562-103.832031-18.476562s62.558594 20.929688 62.558594-53.183594c0-93.839844 48.9375-112.628906 113.851562-111.398437 59.867188 1.144531 83.789063 59.125 41.980469 107.488281zm0 0" fill="#151a1c" data-original="#151A1C"/><path d="m294.277344 57.621094c-6.433594-1.65625-12.960938-3-19.507813-4.023438-5.945312-.9375-12.046875-1.417968-18.25-1.417968h-.019531c-.75 0-1.492188.011718-2.234375.042968-5.429687.101563-10.78125.550782-16.015625 1.375-21.710938 3.390625-43.273438 10.261719-61.554688 20.980469-11.023437-34.851563 16.601563-69.804687 54.589844-72.847656 38.855469.738281 62.578125 25.433593 62.992188 55.890625zm0 0" fill="#2f373b" data-original="#2F373B"/><path d="m382.382812 449.167969v29.1875c-37.144531 21.074219-80.097656 33.109375-125.867187 33.109375-26.976563 0-52.960937-4.179688-77.375-11.929688-16.996094-5.390625-33.230469-12.523437-48.488281-21.179687v-29.1875c0-49.8125 38.363281-90.679688 87.175781-94.621094 2.566406-.207031 5.152344-.3125 7.769531-.3125h61.828125c7.308594 0 14.421875.8125 21.25 2.378906 42.214844 9.65625 73.707031 47.433594 73.707031 92.554688zm0 0" fill="#e8c018" data-original="#E8C018"/><path d="m382.382812 449.167969v29.1875c-37.144531 21.074219-80.097656 33.109375-125.867187 33.109375-26.976563 0-52.960937-4.179688-77.375-11.929688v-50.367187c0-52.429688 42.515625-94.933594 94.957031-94.933594h13.328125c52.453125 0 94.957031 42.503906 94.957031 94.933594zm0 0" fill="#ffd833" data-original="#FFD833"/><path d="m248.175781 378.75h16.6875v67.621094h-16.6875zm0 0" fill="#e8c018" data-original="#E8C018"/><path d="m256.507812 393.097656-42.742187 23.753906-13.003906-60.480468 26.558593-15.640625" fill="#e8c018" data-original="#E8C018"/><path d="m256.507812 393.097656 42.746094 23.753906 13-60.480468-26.558594-15.640625" fill="#e8c018" data-original="#E8C018"/><path d="m290.386719 317.660156v41.570313c0 15.21875-10.03125 28.082031-23.855469 32.355469-3.164062.980468-6.535156 1.511718-10.023438 1.511718-18.707031 0-33.867187-15.160156-33.867187-33.867187v-41.570313zm0 0" fill="#eaa27f" data-original="#EAA27F"/><path d="m290.386719 356.597656v2.632813c0 15.21875-10.03125 28.082031-23.855469 32.355469-12.46875-3.832032-21.847656-14.675782-23.578125-27.945313 2.261719.140625 4.539063.207031 6.824219.207031 6.40625 0 12.691406-.507812 18.808594-1.511718 7.542968-1.210938 14.828124-3.152344 21.800781-5.738282zm0 0" fill="#f6ba97" data-original="#F6BA97"/><path d="m382.382812 449.167969v29.1875c-14.867187 8.4375-30.667968 15.421875-47.207031 20.773437v-49.960937zm0 0" fill="#f6ba97" data-original="#F6BA97"/><path d="m162.058594 249.53125c0 15.679688-11.453125 28.683594-26.453125 31.097656-1.640625.265625-3.328125.402344-5.046875.402344-17.402344 0-31.5-14.097656-31.5-31.5s14.097656-31.5 31.5-31.5c1.71875 0 3.40625.136719 5.046875.402344 15 2.414062 26.453125 15.414062 26.453125 31.097656zm0 0" fill="#f6ba97" data-original="#F6BA97"/><path d="m162.058594 249.53125c0 15.679688-11.453125 28.683594-26.453125 31.097656-2.726563-9.910156-4.179688-20.335937-4.179688-31.097656s1.453125-21.191406 4.179688-31.097656c15 2.414062 26.453125 15.414062 26.453125 31.097656zm0 0" fill="#eaa27f" data-original="#EAA27F"/><path d="m141.820312 249.53125c0 6.21875-5.042968 11.257812-11.261718 11.257812s-11.257813-5.039062-11.257813-11.257812 5.039063-11.257812 11.257813-11.257812 11.261718 5.039062 11.261718 11.257812zm0 0" fill="#eaa27f" data-original="#EAA27F"/><path d="m350.964844 249.53125c0 15.679688 11.453125 28.683594 26.453125 31.097656 1.640625.265625 3.324219.402344 5.046875.402344 17.402344 0 31.5-14.097656 31.5-31.5s-14.097656-31.5-31.5-31.5c-1.722656 0-3.40625.136719-5.046875.402344-15 2.414062-26.453125 15.414062-26.453125 31.097656zm0 0" fill="#f6ba97" data-original="#F6BA97"/><path d="m350.964844 249.53125c0 15.679688 11.453125 28.683594 26.453125 31.097656 2.726562-9.910156 4.179687-20.335937 4.179687-31.097656s-1.453125-21.191406-4.179687-31.097656c-15 2.414062-26.453125 15.414062-26.453125 31.097656zm0 0" fill="#eaa27f" data-original="#EAA27F"/><path d="m393.722656 249.53125c0 6.21875-5.039062 11.257812-11.257812 11.257812s-11.261719-5.039062-11.261719-11.257812 5.042969-11.257812 11.261719-11.257812 11.257812 5.039062 11.257812 11.257812zm0 0" fill="#eaa27f" data-original="#EAA27F"/><path d="m373.714844 188.160156v44.628906c0 58.324219-42.609375 106.710938-98.398438 115.6875-.1875.03125-.382812.0625-.570312.09375-5.933594.949219-12.023438 1.417969-18.238282 1.417969-64.726562 0-117.199218-52.472656-117.199218-117.199219v-44.628906c0-13.628906 2.324218-26.726562 6.621094-38.894531 16.027343-45.613281 59.492187-78.316406 110.578124-78.316406h.007813c6.207031 0 12.304687.480469 18.25 1.417969 56.058594 8.761718 98.949219 57.269531 98.949219 115.792968zm0 0" fill="#eaa27f" data-original="#EAA27F"/><path d="m373.714844 188.160156v44.628906c0 58.324219-42.609375 106.710938-98.398438 115.6875-.1875.03125-.382812.0625-.570312.09375-56.0625-8.757812-98.941406-57.269531-98.941406-115.78125v-44.628906c0-58.523437 42.890624-107.03125 98.960937-115.792968 56.058594 8.761718 98.949219 57.269531 98.949219 115.792968zm0 0" fill="#f6ba97" data-original="#F6BA97"/><g fill="#eaa27f"><path d="m336.285156 263.5625c0 8.0625-6.535156 14.601562-14.597656 14.601562-8.066406 0-14.601562-6.539062-14.601562-14.601562s6.535156-14.597656 14.601562-14.597656c8.0625 0 14.597656 6.535156 14.597656 14.597656zm0 0" data-original="#EAA27F"/><path d="m205.9375 263.5625c0 8.0625-6.539062 14.601562-14.601562 14.601562s-14.597657-6.539062-14.597657-14.601562 6.535157-14.597656 14.597657-14.597656 14.601562 6.535156 14.601562 14.597656zm0 0" data-original="#EAA27F"/><path d="m319.453125 222.894531c0-10.75-8.714844-19.46875-19.464844-19.46875s-19.46875 8.714844-19.46875 19.46875" data-original="#EAA27F"/><path d="m232.511719 222.894531c0-10.75-8.714844-19.46875-19.464844-19.46875s-19.46875 8.714844-19.46875 19.46875" data-original="#EAA27F"/></g><path d="m226.339844 231.179688c0 7.34375-5.953125 13.296874-13.292969 13.296874-7.34375 0-13.296875-5.953124-13.296875-13.296874s5.953125-13.296876 13.296875-13.296876c7.339844 0 13.292969 5.953126 13.292969 13.296876zm0 0" fill="#2f373b" data-original="#2F373B"/><path d="m313.28125 231.179688c0 7.34375-5.953125 13.296874-13.292969 13.296874-7.34375 0-13.296875-5.953124-13.296875-13.296874s5.953125-13.296876 13.296875-13.296876c7.339844 0 13.292969 5.953126 13.292969 13.296876zm0 0" fill="#2f373b" data-original="#2F373B"/><path d="m269.8125 264.65625h-26.59375c-3.167969 0-5.734375-2.566406-5.734375-5.734375s2.566406-5.738281 5.734375-5.738281h26.59375c3.167969 0 5.734375 2.570312 5.734375 5.738281s-2.566406 5.734375-5.734375 5.734375zm0 0" fill="#eaa27f" data-original="#EAA27F"/><path d="m256.515625 300.941406c-9.816406 0-19.628906-2.460937-28.574219-7.375-2.523437-1.390625-3.445312-4.558594-2.058594-7.082031 1.390626-2.523437 4.558594-3.445313 7.082032-2.058594 14.746094 8.109375 32.355468 8.109375 47.101562 0 2.519532-1.386719 5.691406-.464843 7.082032 2.058594 1.386718 2.523437.464843 5.691406-2.058594 7.082031-8.945313 4.914063-18.757813 7.375-28.574219 7.375zm0 0" fill="#eaa27f" data-original="#EAA27F"/><path d="m223.628906 228.832031c0 3.148438-2.550781 5.699219-5.695312 5.699219-3.148438 0-5.699219-2.550781-5.699219-5.699219 0-3.144531 2.550781-5.695312 5.699219-5.695312 3.144531 0 5.695312 2.550781 5.695312 5.695312zm0 0" fill="#fff" data-original="#FFF"/><path d="m311.222656 228.832031c0 3.148438-2.546875 5.699219-5.695312 5.699219-3.144532 0-5.695313-2.550781-5.695313-5.699219 0-3.144531 2.550781-5.695312 5.695313-5.695312 3.148437 0 5.695312 2.550781 5.695312 5.695312zm0 0" fill="#fff" data-original="#FFF"/><path d="m377.691406 139.1875v60.765625h-242.375v-34.882813l1.03125-38.582031 16.9375-26.644531 53.179688-39.625 27.894531-4.253906 33.632813-5.128906 68.824218 25.023437zm0 0" fill="#2f373b" data-original="#2F373B"/><path d="m203.453125 199.953125h-50.167969v27.113281h-17.96875v-61.996094l1.03125-38.582031 16.9375-26.644531 53.179688-39.625 27.894531-4.253906c-23.953125 24.621094-34.378906 88.75-30.90625 143.988281zm0 0" fill="#151a1c" data-original="#151A1C"/><path d="m378.871094 148.730469c0 5.558593-.398438 11.03125-1.179688 16.382812-8.269531-57.019531-59.367187-100.910156-121.183594-100.910156-6.691406 0-13.253906.5-19.632812 1.511719-6.082031.929687-12.023438 2.304687-17.769531 4.066406-9.042969 2.773438-17.613281 6.519531-25.589844 11.117188-30.949219 17.839843-52.996094 48.4375-58.199219 84.171874-.769531-5.339843-1.167968-10.792968-1.167968-16.339843 0-42.660157 23.796874-80.003907 59.367187-100.492188 7.988281-4.597656 16.558594-8.351562 25.589844-11.117187 5.753906-1.773438 11.6875-3.136719 17.769531-4.078125 6.378906-1.011719 12.941406-1.511719 19.632812-1.511719 67.585938 0 122.363282 52.472656 122.363282 117.199219zm0 0" fill="#f2efea" data-original="#F2EFEA"/><path d="m359.722656 199.953125h17.96875v27.113281h-17.96875zm0 0" fill="#2f373b" data-original="#2F373B"/><path d="m342.390625 199.953125s1.722656-45.882813-12.875-69.867187l-2.085937 79.25" fill="#f6ba97" data-original="#F6BA97"/><path d="m177.863281 449.167969v49.960937c-16.539062-5.351562-32.335937-12.335937-47.207031-20.773437v-29.1875zm0 0" fill="#eaa27f" data-original="#EAA27F"/><path d="m219.105469 37.121094v32.660156c-9.042969 2.773438-17.613281 6.519531-25.589844 11.117188-30.949219 17.839843-52.996094 48.4375-58.199219 84.171874-.769531-5.339843-1.167968-10.792968-1.167968-16.339843 0-42.660157 23.796874-80.003907 59.367187-100.492188 7.988281-4.597656 16.558594-8.351562 25.589844-11.117187zm0 0" fill="#d8d4ce" data-original="#D8D4CE"/><path d="m174.542969 222.972656-27.390625 3.1875-2.21875-19.054687 27.128906-3.15625c1.710938-.199219 2.933594-1.746094 2.734375-3.453125-.199219-1.707032-1.746094-2.929688-3.453125-2.730469l-27.128906 3.15625-2.21875-19.054687 27.394531-3.1875c1.707031-.199219 2.929687-1.746094 2.734375-3.453126-.199219-1.707031-1.746094-2.933593-3.453125-2.734374l-27.394531 3.1875-2.21875-19.054688 18.234375-2.121094c1.707031-.199218 2.933593-1.742187 2.734375-3.453125-.199219-1.707031-1.746094-2.929687-3.453125-2.730469l-18.234375 2.121094-2.042969-17.558594 3.628906-.421874c1.707031-.199219 2.929688-1.742188 2.730469-3.453126-.199219-1.707031-1.742188-2.929687-3.453125-2.730468l-3.625.421875-1.042969-8.980469c-.199218-1.707031-1.746094-2.929688-3.453125-2.730469-1.710937.199219-2.933593 1.742188-2.734375 3.453125l1.046875 8.976563-19.054687 2.21875-2.972656-25.527344c-.195313-1.707031-1.742188-2.929687-3.449219-2.730469-1.710938.199219-2.933594 1.742188-2.734375 3.453125l2.96875 25.523438-19.054688 2.214843-3.996094-34.335937c-.199218-1.707031-1.742187-2.933594-3.453124-2.734375-1.707032.199219-2.929688 1.746094-2.730469 3.453125l3.996093 34.339844-19.054687 2.214843-2.96875-25.523437c-.199219-1.707031-1.746094-2.929687-3.453125-2.734375-1.710938.199219-2.933594 1.746094-2.734375 3.453125l2.96875 25.523437-19.054687 2.21875-1.042969-8.980468c-.199219-1.707032-1.746094-2.929688-3.453125-2.730469-1.707032.199219-2.933594 1.742187-2.734375 3.453125l1.046875 8.976562-3.628906.421876c-1.707032.199218-2.929688 1.746093-2.730469 3.453124.199219 1.707032 1.742187 2.929688 3.453125 2.734376l3.625-.421876 2.042968 17.554688-18.234374 2.121094c-1.707032.199218-2.929688 1.746094-2.730469 3.453125s1.742187 2.929687 3.453125 2.734375l18.230468-2.121094 2.21875 19.050781-27.394531 3.1875c-1.707031.199219-2.929687 1.746094-2.734375 3.453125.199219 1.710938 1.746094 2.933594 3.453125 2.734375l27.394531-3.1875 2.214844 19.054688-27.128906 3.15625c-1.707031.199219-2.929688 1.742187-2.734375 3.453125.199219 1.707031 1.746094 2.929687 3.453125 2.730468l27.128906-3.15625 2.21875 19.054688-27.394531 3.1875c-1.707031.199219-2.929687 1.746094-2.730469 3.453125.199219 1.707031 1.742188 2.929687 3.453125 2.734375l27.390625-3.1875 2.21875 19.050781-18.234375 2.125c-1.707031.199219-2.929687 1.742188-2.730469 3.453125.199219 1.707032 1.742188 2.929688 3.453126 2.730469l18.230468-2.121094 2.042969 17.558594-3.625.421875c-1.710937.199219-2.933594 1.742188-2.734375 3.453125.199219 1.707031 1.746094 2.929687 3.453125 2.730469l3.625-.421875 1.046875 8.976562c.199219 1.710938 1.742188 2.933594 3.453125 2.734375 1.707031-.199218 2.929687-1.742187 2.730469-3.453125l-1.042969-8.976562 19.054687-2.214844 2.96875 25.519531c.199219 1.710938 1.746094 2.933594 3.453126 2.734375 1.707031-.199219 2.929687-1.742187 2.734374-3.453125l-2.972656-25.523437 19.054688-2.214844 3.996094 34.335937c.199218 1.710938 1.746093 2.933594 3.453124 2.734376 1.707032-.199219 2.929688-1.746094 2.734376-3.453126l-3.996094-34.335937 19.054687-2.21875 2.96875 25.523437c.199219 1.707032 1.746094 2.929688 3.453125 2.734376 1.707032-.199219 2.929688-1.746094 2.734375-3.453126l-2.972656-25.523437 19.054687-2.21875 1.046876 8.980469c.199218 1.707031 1.742187 2.929687 3.449218 2.730468 1.710938-.199218 2.933594-1.742187 2.734375-3.453124l-1.042969-8.976563 3.625-.421875c1.707032-.199219 2.929688-1.746094 2.730469-3.453125-.195312-1.707031-1.742187-2.929687-3.449219-2.734375l-3.628906.425781-2.042968-17.558593 18.234374-2.121094c1.707032-.199219 2.933594-1.746094 2.734376-3.453125-.199219-1.707031-1.746094-2.929688-3.453126-2.734375l-18.234374 2.125-2.214844-19.054688 27.394531-3.1875c1.707031-.199218 2.929687-1.746094 2.730469-3.453125-.199219-1.710937-1.742188-2.933593-3.453125-2.734375zm-33.578125 3.90625-19.054688 2.21875-2.214844-19.054687 19.050782-2.21875zm-50.167969-45.324218-2.214844-19.054688 19.054688-2.21875 2.214843 19.054688zm19.773437 3.96875 2.21875 19.054687-19.054687 2.214844-2.21875-19.054688zm-25.957031-3.25-19.054687 2.214843-2.21875-19.050781 19.054687-2.21875zm.71875 6.1875 2.21875 19.050781-19.054687 2.21875-2.21875-19.054688zm2.9375 25.238281 2.214844 19.054687-19.054687 2.214844-2.214844-19.054688zm2.933594 25.238281 2.21875 19.054688-19.054687 2.21875-2.214844-19.054688zm6.1875-.71875 19.054687-2.21875 2.21875 19.054688-19.054687 2.21875zm-.71875-6.1875-2.21875-19.050781 19.054687-2.21875 2.21875 19.054687zm41.355469-30.390625-19.054688 2.214844-2.214844-19.050781 19.054688-2.21875zm-2.9375-25.242187-19.050782 2.21875-2.21875-19.054688 19.054688-2.214844zm-4.980469-42.792969 2.042969 17.554687-19.050782 2.21875-2.042968-17.558594zm-25.238281 2.933593 2.042968 17.558594-19.054687 2.214844-2.042969-17.554688zm-25.238282 2.9375 2.042969 17.558594-19.054687 2.214844-2.042969-17.554688zm-44.296874 5.15625 19.054687-2.21875 2.042969 17.558594-19.054688 2.214844zm2.765624 23.742188 19.054688-2.21875 2.214844 19.054688-19.054688 2.214843zm2.9375 25.238281 19.054688-2.214843 2.214844 19.050781-19.054688 2.21875zm2.933594 25.238281 19.054688-2.214843 2.21875 19.054687-19.054688 2.214844zm2.9375 25.242188 19.054688-2.21875 2.21875 19.054688-19.054688 2.21875zm4.980469 42.796875-2.042969-17.558594 19.054688-2.214843 2.042968 17.554687zm25.242187-2.9375-2.042968-17.558594 19.050781-2.214843 2.042969 17.554687zm25.238282-2.9375-2.042969-17.558594 19.054687-2.214843 2.042969 17.554687zm44.292968-5.15625-19.054687 2.21875-2.042969-17.554687 19.054688-2.21875zm-2.761718-23.742187-19.054688 2.21875-2.214844-19.054688 19.050782-2.214844zm0 0" fill="#f2efea" data-original="#F2EFEA"/><path d="m157.457031 133.800781c-3.601562-5.386719-7.558593-10.429687-11.847656-15.058593-19.71875-21.28125-44.074219-31.429688-68.582031-28.578126-24.511719 2.855469-45.882813 18.320313-60.183594 43.558594-3.417969 6.039063-6.335938 12.472656-8.738281 19.21875-7.28125 20.46875-9.769531 43.777344-7.007813 67.492188 3.671875 31.527344 16.179688 60.214844 35.230469 80.777344 8.160156 8.808593 17.117187 15.699218 26.546875 20.558593l3.460938 3.5c20.097656 20.34375 33.347656 47.140625 37.308593 75.457031l.917969 6.605469c.421875 3.015625 3.175781 5.148438 6.199219 4.796875l7.363281-.859375c1.511719-.175781 2.886719-.957031 3.808594-2.164062s1.3125-2.738281 1.085937-4.242188c-4.773437-31.523437 1.859375-63.605469 18.679688-90.640625 9.007812-7.152344 16.925781-16.570312 23.398437-27.996094 13.820313-24.386718 19.414063-55.179687 15.746094-86.710937-2.84375-24.429687-11-47.15625-23.386719-65.714844zm-47.039062 245.199219c-5.253907-18.050781-14.023438-35.039062-25.683594-49.789062.007813 0 .019531.003906.027344.003906 6.640625 1.152344 13.394531 1.355468 20.152343.570312 6.320313-.738281 12.441407-2.3125 18.28125-4.6875.007813 0 .019532-.003906.023438-.007812-7.703125 17.003906-12.054688 35.296875-12.800781 53.910156zm54.074219-174.171875c.609374 6.496094.78125 12.9375.519531 19.25-.082031 2.125-.21875 4.230469-.40625 6.316406-.574219 6.765625-1.65625 13.355469-3.226563 19.6875-.53125 2.191407-1.128906 4.351563-1.78125 6.480469-1.847656 6.027344-4.15625 11.796875-6.90625 17.226562-.246094.488282-.5.976563-.753906 1.457032-.476562.90625-.960938 1.804687-1.464844 2.6875-.777344 1.382812-1.589844 2.722656-2.417968 4.03125-.195313.304687-.386719.601562-.578126.898437-4.96875 7.628907-10.742187 13.957031-17.113281 18.835938-1.886719 1.453125-3.824219 2.769531-5.8125 3.957031-5.804687 3.46875-12.015625 5.828125-18.503906 6.96875-1.019531.1875-2.042969.335938-3.082031.457031-1.035156.121094-2.066406.210938-3.101563.261719-6.582031.378906-13.164062-.492188-19.605469-2.539062-2.214843-.695313-4.402343-1.53125-6.5625-2.503907-7.328124-3.289062-14.402343-8.128906-20.992187-14.417969-.25-.242187-.507813-.484374-.757813-.734374-1.105468-1.082032-2.203124-2.203126-3.28125-3.367188-.691406-.746094-1.371093-1.507812-2.042968-2.28125-.363282-.414062-.722656-.832031-1.074219-1.257812-3.925781-4.648438-7.492187-9.730469-10.671875-15.171876-1.128906-1.917968-2.207031-3.890624-3.230469-5.890624-2.980469-5.8125-5.542969-11.976563-7.660156-18.425782-.667969-1.988281-1.273437-4.011718-1.84375-6.050781-1.703125-6.089844-3.015625-12.394531-3.90625-18.859375-.160156-1.113281-.304687-2.234375-.4375-3.359375-.109375-.9375-.210937-1.886719-.292969-2.824219-.636718-6.496094-.828125-12.925781-.59375-19.242187.074219-2.121094.199219-4.226563.371094-6.316407.554688-6.746093 1.605469-13.332031 3.128906-19.675781.53125-2.191406 1.117188-4.34375 1.761719-6.472656 1.875-6.234375 4.234375-12.195313 7.078125-17.792969.140625-.292968.292969-.585937.449219-.875.566406-1.113281 1.15625-2.195312 1.765625-3.273437.492187-.871094.992187-1.71875 1.507812-2.550781.179688-.304688.359375-.601563.546875-.894532.3125-.503906.625-.992187.941407-1.484375 4.976562-7.632812 10.746093-13.960937 17.125-18.84375 1.878906-1.445312 3.816406-2.761719 5.804687-3.949219 5.804687-3.46875 12.015625-5.828124 18.5-6.972656 1.023437-.183594 2.046875-.335937 3.085937-.457031 1.035157-.121094 2.066407-.210937 3.101563-.257813 6.578125-.382812 13.167969.484376 19.609375 2.53125 2.207031.699219 4.398438 1.539063 6.558594 2.511719 7.328125 3.289063 14.402344 8.128907 20.992187 14.417969.347657.328125.695313.664062 1.035157 1.007812.070312.066407.144531.140626.21875.21875.9375.921876 1.863281 1.886719 2.78125 2.875.84375.910157 1.664062 1.828126 2.472656 2.78125.21875.246094.4375.5.648437.757813 4.042969 4.792969 7.714844 10.050781 10.972657 15.6875 1.113281 1.921875 2.179687 3.886719 3.195312 5.890625 2.945312 5.820312 5.480469 11.988281 7.570312 18.433594.648438 1.992187 1.253907 4.011718 1.816407 6.054687 1.675781 6.097657 2.960937 12.40625 3.835937 18.867188.128906.9375.25 1.882812.359375 2.820312.128907 1.132813.25 2.25.347657 3.371094zm0 0" fill="#f46d11" data-original="#F46D11" class="active-path" style="fill:#F46D11"/><path d="m135.828125 466.175781c-.238281.050781-.480469.105469-.730469.144531-3.816406.742188-7.664062 1.347657-11.53125 1.816407-2.078125.261719-4.164062.480469-6.25.65625-.65625.050781-1.3125.113281-1.980468.15625-3.429688-2.273438-6.796876-4.628907-10.101563-7.070313l-5.851563-50.292968c-.449218-3.773438 1.4375-7.289063 4.503907-9.113282 1.09375-.65625 2.347656-1.09375 3.691406-1.25l11.136719-1.304687c1.273437-.148438 2.523437-.019531 3.683594.3125 3.503906 1.011719 6.234374 4.046875 6.683593 7.894531l2.125 18.289062zm0 0" fill="#2f373b" data-original="#2F373B"/><path d="m150.863281 488.667969c-11.886719-5.410157-23.285156-11.699219-34.117187-18.789063-8.042969-5.265625-15.769532-10.972656-23.140625-17.101562-.835938-13.191406 8.300781-25.246094 21.628906-27.738282 3.441406-.648437 6.847656-.59375 10.082031.050782 3.554688.699218 6.894532 2.117187 9.832032 4.140625 5.613281 3.847656 9.761718 9.824219 11.117187 17.039062l5.476563 29.175781c.855468 4.578126.488281 9.09375-.878907 13.222657zm0 0" fill="#eaa27f" data-original="#EAA27F"/><path d="m150.863281 488.667969c-11.886719-5.410157-23.285156-11.699219-34.117187-18.789063l-3.277344-17.457031c-2.0625-10.992187 2.964844-21.667969 11.847656-27.332031 3.554688.699218 6.894532 2.117187 9.832032 4.140625 5.613281 3.847656 9.761718 9.824219 11.117187 17.039062l5.476563 29.175781c.855468 4.578126.488281 9.09375-.878907 13.222657zm0 0" fill="#f6ba97" data-original="#F6BA97"/></g> </svg>
